<?xml version="1.0" encoding="UTF-8"?><svg xmlns="http://www.w3.org/2000/svg" xmlns:xlink="http://www.w3.org/1999/xlink" fill-opacity="1" color-rendering="auto" color-interpolation="auto" text-rendering="auto" stroke="black" stroke-linecap="square" width="1406" stroke-miterlimit="10" shape-rendering="auto" stroke-opacity="1" fill="black" stroke-dasharray="none" font-weight="normal" stroke-width="1" height="994" font-family="'Dialog'" font-style="normal" stroke-linejoin="miter" font-size="12px" stroke-dashoffset="0" image-rendering="auto">
  <!--Generated by ySVG 2.5-->
  <defs id="genericDefs"/>
  <g>
    <defs id="defs1">
      <linearGradient x1="508.5" gradientUnits="userSpaceOnUse" x2="635.5" y1="11" y2="91" id="linearGradient1" spreadMethod="reflect">
        <stop stop-opacity="1" stop-color="rgb(232,238,247)" offset="0%"/>
        <stop stop-opacity="1" stop-color="rgb(153,204,255)" offset="100%"/>
      </linearGradient>
      <linearGradient x1="445" gradientUnits="userSpaceOnUse" x2="699" y1="172" y2="331" id="linearGradient2" spreadMethod="reflect">
        <stop stop-opacity="1" stop-color="rgb(232,238,247)" offset="0%"/>
        <stop stop-opacity="1" stop-color="rgb(0,204,255)" offset="100%"/>
      </linearGradient>
      <linearGradient x1="832" gradientUnits="userSpaceOnUse" x2="1115" y1="172" y2="316" id="linearGradient3" spreadMethod="reflect">
        <stop stop-opacity="1" stop-color="rgb(232,238,247)" offset="0%"/>
        <stop stop-opacity="1" stop-color="rgb(0,204,255)" offset="100%"/>
      </linearGradient>
      <linearGradient x1="154" gradientUnits="userSpaceOnUse" x2="312" y1="385.75" y2="465.75" id="linearGradient4" spreadMethod="reflect">
        <stop stop-opacity="1" stop-color="rgb(232,238,247)" offset="0%"/>
        <stop stop-opacity="1" stop-color="rgb(204,255,204)" offset="100%"/>
      </linearGradient>
      <linearGradient x1="760.5" gradientUnits="userSpaceOnUse" x2="912.5" y1="412" y2="503" id="linearGradient5" spreadMethod="reflect">
        <stop stop-opacity="1" stop-color="rgb(232,238,247)" offset="0%"/>
        <stop stop-opacity="1" stop-color="rgb(183,201,227)" offset="100%"/>
      </linearGradient>
      <linearGradient x1="1028" gradientUnits="userSpaceOnUse" x2="1180" y1="412" y2="503" id="linearGradient6" spreadMethod="reflect">
        <stop stop-opacity="1" stop-color="rgb(232,238,247)" offset="0%"/>
        <stop stop-opacity="1" stop-color="rgb(183,201,227)" offset="100%"/>
      </linearGradient>
      <linearGradient x1="138.5" gradientUnits="userSpaceOnUse" x2="327.5" y1="520.5" y2="606.5" id="linearGradient7" spreadMethod="reflect">
        <stop stop-opacity="1" stop-color="rgb(232,238,247)" offset="0%"/>
        <stop stop-opacity="1" stop-color="rgb(255,204,0)" offset="100%"/>
      </linearGradient>
      <linearGradient x1="106" gradientUnits="userSpaceOnUse" x2="360" y1="673.5" y2="817.5" id="linearGradient8" spreadMethod="reflect">
        <stop stop-opacity="1" stop-color="rgb(232,238,247)" offset="0%"/>
        <stop stop-opacity="1" stop-color="rgb(0,204,255)" offset="100%"/>
      </linearGradient>
      <linearGradient x1="154" gradientUnits="userSpaceOnUse" x2="312" y1="899.5" y2="974.5" id="linearGradient9" spreadMethod="reflect">
        <stop stop-opacity="1" stop-color="rgb(232,238,247)" offset="0%"/>
        <stop stop-opacity="1" stop-color="rgb(204,255,204)" offset="100%"/>
      </linearGradient>
      <linearGradient x1="125" gradientUnits="userSpaceOnUse" x2="341" y1="187" y2="331" id="linearGradient10" spreadMethod="reflect">
        <stop stop-opacity="1" stop-color="rgb(232,238,247)" offset="0%"/>
        <stop stop-opacity="1" stop-color="rgb(0,204,255)" offset="100%"/>
      </linearGradient>
      <linearGradient x1="-101.25" gradientUnits="userSpaceOnUse" x2="39.75" y1="230.5" y2="287.5" id="linearGradient11" spreadMethod="reflect">
        <stop stop-opacity="1" stop-color="rgb(232,238,247)" offset="0%"/>
        <stop stop-opacity="1" stop-color="rgb(183,201,227)" offset="100%"/>
      </linearGradient>
      <linearGradient x1="488" gradientUnits="userSpaceOnUse" x2="656" y1="708" y2="783" id="linearGradient12" spreadMethod="reflect">
        <stop stop-opacity="1" stop-color="rgb(232,238,247)" offset="0%"/>
        <stop stop-opacity="1" stop-color="rgb(183,201,227)" offset="100%"/>
      </linearGradient>
      <clipPath clipPathUnits="userSpaceOnUse" id="clipPath1">
        <path d="M0 0 L1406 0 L1406 994 L0 994 L0 0 Z"/>
      </clipPath>
      <clipPath clipPathUnits="userSpaceOnUse" id="clipPath2">
        <path d="M-211 -4 L1195 -4 L1195 990 L-211 990 L-211 -4 Z"/>
      </clipPath>
    </defs>
    <g fill="white" text-rendering="geometricPrecision" shape-rendering="geometricPrecision" transform="translate(211,4)" stroke="white">
      <rect x="-211" width="1406" height="994" y="-4" clip-path="url(#clipPath2)" stroke="none"/>
    </g>
    <g fill="url(#linearGradient1)" text-rendering="geometricPrecision" shape-rendering="geometricPrecision" transform="matrix(1,0,0,1,211,4)" stroke="url(#linearGradient1)">
      <ellipse rx="63.5" ry="40" clip-path="url(#clipPath2)" cx="572" cy="51" stroke="none"/>
    </g>
    <g text-rendering="geometricPrecision" stroke-miterlimit="1.45" shape-rendering="geometricPrecision" transform="matrix(1,0,0,1,211,4)" stroke-linecap="butt">
      <ellipse rx="63.5" fill="none" ry="40" clip-path="url(#clipPath2)" cx="572" cy="51"/>
      <text x="523.8535" xml:space="preserve" y="48.1699" clip-path="url(#clipPath2)" font-family="sans-serif" stroke="none">Update function</text>
      <text x="554.1904" xml:space="preserve" y="62.1387" clip-path="url(#clipPath2)" font-family="sans-serif" stroke="none">called</text>
    </g>
    <g fill="url(#linearGradient2)" text-rendering="geometricPrecision" shape-rendering="geometricPrecision" transform="matrix(1,0,0,1,211,4)" stroke="url(#linearGradient2)">
      <path d="M572 172 L699 251.5 L572 331 L445 251.5 Z" stroke="none" clip-path="url(#clipPath2)"/>
    </g>
    <g text-rendering="geometricPrecision" stroke-miterlimit="1.45" shape-rendering="geometricPrecision" transform="matrix(1,0,0,1,211,4)" stroke-linecap="butt">
      <path fill="none" d="M572 172 L699 251.5 L572 331 L445 251.5 Z" clip-path="url(#clipPath2)"/>
      <text x="466.9941" xml:space="preserve" y="248.6699" clip-path="url(#clipPath2)" font-family="sans-serif" stroke="none">Can we connect to Firmware Forge</text>
      <text x="475.9297" xml:space="preserve" y="262.6387" clip-path="url(#clipPath2)" font-family="sans-serif" stroke="none">with using a known Fingerprint?</text>
    </g>
    <g fill="url(#linearGradient3)" text-rendering="geometricPrecision" shape-rendering="geometricPrecision" transform="matrix(1,0,0,1,211,4)" stroke="url(#linearGradient3)">
      <path d="M973.5 172 L1115 244 L973.5 316 L832 244 Z" stroke="none" clip-path="url(#clipPath2)"/>
    </g>
    <g text-rendering="geometricPrecision" stroke-miterlimit="1.45" shape-rendering="geometricPrecision" transform="matrix(1,0,0,1,211,4)" stroke-linecap="butt">
      <path fill="none" d="M973.5 172 L1115 244 L973.5 316 L832 244 Z" clip-path="url(#clipPath2)"/>
      <text x="887.9326" xml:space="preserve" y="234.1855" clip-path="url(#clipPath2)" font-family="sans-serif" stroke="none">Does the md5 of our current</text>
      <text x="888.542" xml:space="preserve" y="248.1543" clip-path="url(#clipPath2)" font-family="sans-serif" stroke="none">firmware image match what</text>
      <text x="898.418" xml:space="preserve" y="262.123" clip-path="url(#clipPath2)" font-family="sans-serif" stroke="none">the server is sending us?</text>
    </g>
    <g fill="url(#linearGradient4)" text-rendering="geometricPrecision" shape-rendering="geometricPrecision" transform="matrix(1,0,0,1,211,4)" stroke="url(#linearGradient4)">
      <path d="M154 385.75 L312 385.75 L312 465.75 L154 465.75 Z" stroke="none" clip-path="url(#clipPath2)"/>
    </g>
    <g text-rendering="geometricPrecision" stroke-miterlimit="1.45" shape-rendering="geometricPrecision" transform="matrix(1,0,0,1,211,4)" stroke-linecap="butt">
      <path fill="none" d="M154 385.75 L312 385.75 L312 465.75 L154 465.75 Z" clip-path="url(#clipPath2)"/>
      <text x="167.7793" xml:space="preserve" y="429.9043" clip-path="url(#clipPath2)" font-family="sans-serif" stroke="none">Call renew fingerprint</text>
    </g>
    <g fill="url(#linearGradient5)" text-rendering="geometricPrecision" shape-rendering="geometricPrecision" transform="matrix(1,0,0,1,211,4)" stroke="url(#linearGradient5)">
      <rect x="760.5" y="412" clip-path="url(#clipPath2)" width="152" rx="45.5" ry="45.5" height="91" stroke="none"/>
    </g>
    <g text-rendering="geometricPrecision" stroke-miterlimit="1.45" shape-rendering="geometricPrecision" transform="matrix(1,0,0,1,211,4)" stroke-linecap="butt">
      <rect x="760.5" y="412" clip-path="url(#clipPath2)" fill="none" width="152" rx="45.5" ry="45.5" height="91"/>
      <text x="780.8916" xml:space="preserve" y="461.6543" clip-path="url(#clipPath2)" font-family="sans-serif" stroke="none">No update needed</text>
    </g>
    <g fill="url(#linearGradient6)" text-rendering="geometricPrecision" shape-rendering="geometricPrecision" transform="matrix(1,0,0,1,211,4)" stroke="url(#linearGradient6)">
      <rect x="1028" y="412" clip-path="url(#clipPath2)" width="152" rx="45.5" ry="45.5" height="91" stroke="none"/>
    </g>
    <g text-rendering="geometricPrecision" stroke-miterlimit="1.45" shape-rendering="geometricPrecision" transform="matrix(1,0,0,1,211,4)" stroke-linecap="butt">
      <rect x="1028" y="412" clip-path="url(#clipPath2)" fill="none" width="152" rx="45.5" ry="45.5" height="91"/>
      <text x="1042.5615" xml:space="preserve" y="454.6699" clip-path="url(#clipPath2)" font-family="sans-serif" stroke="none">Download and apply</text>
      <text x="1062.8584" xml:space="preserve" y="468.6387" clip-path="url(#clipPath2)" font-family="sans-serif" stroke="none">new firmware</text>
    </g>
    <g fill="url(#linearGradient7)" text-rendering="geometricPrecision" shape-rendering="geometricPrecision" transform="matrix(1,0,0,1,211,4)" stroke="url(#linearGradient7)">
      <path d="M138.5 520.5 L327.5 520.5 L327.5 606.5 L138.5 606.5 L160 563.5 Z" stroke="none" clip-path="url(#clipPath2)"/>
    </g>
    <g text-rendering="geometricPrecision" stroke-miterlimit="1.45" shape-rendering="geometricPrecision" transform="matrix(1,0,0,1,211,4)" stroke-linecap="butt">
      <path fill="none" d="M138.5 520.5 L327.5 520.5 L327.5 606.5 L138.5 606.5 L160 563.5 Z" clip-path="url(#clipPath2)"/>
      <text x="174.6406" xml:space="preserve" y="546.7012" clip-path="url(#clipPath2)" font-family="sans-serif" stroke="none">Server replies with:</text>
      <text x="169.042" xml:space="preserve" y="560.6699" clip-path="url(#clipPath2)" font-family="sans-serif" stroke="none">1. Current fingerprint</text>
      <text x="178.4814" xml:space="preserve" y="574.6387" clip-path="url(#clipPath2)" font-family="sans-serif" stroke="none">2. Encrypted hash</text>
      <text x="168.9541" xml:space="preserve" y="588.6074" clip-path="url(#clipPath2)" font-family="sans-serif" stroke="none">3. Intialization Vector</text>
    </g>
    <g fill="url(#linearGradient8)" text-rendering="geometricPrecision" shape-rendering="geometricPrecision" transform="matrix(1,0,0,1,211,4)" stroke="url(#linearGradient8)">
      <path d="M233 673.5 L360 745.5 L233 817.5 L106 745.5 Z" stroke="none" clip-path="url(#clipPath2)"/>
    </g>
    <g text-rendering="geometricPrecision" stroke-miterlimit="1.45" shape-rendering="geometricPrecision" transform="matrix(1,0,0,1,211,4)" stroke-linecap="butt">
      <path fill="none" d="M233 673.5 L360 745.5 L233 817.5 L106 745.5 Z" clip-path="url(#clipPath2)"/>
      <text x="157.4375" xml:space="preserve" y="735.6855" clip-path="url(#clipPath2)" font-family="sans-serif" stroke="none">Does the decrypted hash</text>
      <text x="164.0088" xml:space="preserve" y="749.6543" clip-path="url(#clipPath2)" font-family="sans-serif" stroke="none">match what the device</text>
      <text x="177.7695" xml:space="preserve" y="763.623" clip-path="url(#clipPath2)" font-family="sans-serif" stroke="none">calculated locally?</text>
    </g>
    <g fill="url(#linearGradient9)" text-rendering="geometricPrecision" shape-rendering="geometricPrecision" transform="matrix(1,0,0,1,211,4)" stroke="url(#linearGradient9)">
      <path d="M154 899.5 L312 899.5 L312 974.5 L154 974.5 Z" stroke="none" clip-path="url(#clipPath2)"/>
    </g>
    <g text-rendering="geometricPrecision" stroke-miterlimit="1.45" shape-rendering="geometricPrecision" transform="matrix(1,0,0,1,211,4)" stroke-linecap="butt">
      <path fill="none" d="M154 899.5 L312 899.5 L312 974.5 L154 974.5 Z" clip-path="url(#clipPath2)"/>
      <text x="178.0127" xml:space="preserve" y="934.1699" clip-path="url(#clipPath2)" font-family="sans-serif" stroke="none">Reattempt update</text>
      <text x="168.9307" xml:space="preserve" y="948.1387" clip-path="url(#clipPath2)" font-family="sans-serif" stroke="none">using new fingerprint</text>
    </g>
    <g fill="url(#linearGradient10)" text-rendering="geometricPrecision" shape-rendering="geometricPrecision" transform="matrix(1,0,0,1,211,4)" stroke="url(#linearGradient10)">
      <path d="M233 187 L341 259 L233 331 L125 259 Z" stroke="none" clip-path="url(#clipPath2)"/>
    </g>
    <g text-rendering="geometricPrecision" stroke-miterlimit="1.45" shape-rendering="geometricPrecision" transform="matrix(1,0,0,1,211,4)" stroke-linecap="butt">
      <path fill="none" d="M233 187 L341 259 L233 331 L125 259 Z" clip-path="url(#clipPath2)"/>
      <text x="163.7832" xml:space="preserve" y="256.1699" clip-path="url(#clipPath2)" font-family="sans-serif" stroke="none">Is this our first attempt</text>
      <text x="171.5381" xml:space="preserve" y="270.1387" clip-path="url(#clipPath2)" font-family="sans-serif" stroke="none">to connect recently?</text>
    </g>
    <g fill="url(#linearGradient11)" text-rendering="geometricPrecision" shape-rendering="geometricPrecision" transform="matrix(1,0,0,1,211,4)" stroke="url(#linearGradient11)">
      <rect x="-101.25" y="230.5" clip-path="url(#clipPath2)" width="141" rx="28.5" ry="28.5" height="57" stroke="none"/>
    </g>
    <g text-rendering="geometricPrecision" stroke-miterlimit="1.45" shape-rendering="geometricPrecision" transform="matrix(1,0,0,1,211,4)" stroke-linecap="butt">
      <rect x="-101.25" y="230.5" clip-path="url(#clipPath2)" fill="none" width="141" rx="28.5" ry="28.5" height="57"/>
      <text x="-69.1025" xml:space="preserve" y="256.1699" clip-path="url(#clipPath2)" font-family="sans-serif" stroke="none">Server Error,</text>
      <text x="-75.3281" xml:space="preserve" y="270.1387" clip-path="url(#clipPath2)" font-family="sans-serif" stroke="none">try again later.</text>
    </g>
    <g fill="url(#linearGradient12)" text-rendering="geometricPrecision" shape-rendering="geometricPrecision" transform="matrix(1,0,0,1,211,4)" stroke="url(#linearGradient12)">
      <rect x="488" y="708" clip-path="url(#clipPath2)" width="168" rx="37.5" ry="37.5" height="75" stroke="none"/>
    </g>
    <g text-rendering="geometricPrecision" stroke-miterlimit="1.45" shape-rendering="geometricPrecision" transform="matrix(1,0,0,1,211,4)" stroke-linecap="butt">
      <rect x="488" y="708" clip-path="url(#clipPath2)" fill="none" width="168" rx="37.5" ry="37.5" height="75"/>
      <text x="511.8066" xml:space="preserve" y="735.6855" clip-path="url(#clipPath2)" font-family="sans-serif" stroke="none">Potential Man in the</text>
      <text x="513.5586" xml:space="preserve" y="749.6543" clip-path="url(#clipPath2)" font-family="sans-serif" stroke="none">Middle Attack. Stop</text>
      <text x="514.2266" xml:space="preserve" y="763.623" clip-path="url(#clipPath2)" font-family="sans-serif" stroke="none">and try again later.</text>
    </g>
    <g text-rendering="geometricPrecision" stroke-miterlimit="1.45" shape-rendering="geometricPrecision" transform="matrix(1,0,0,1,211,4)" stroke-linecap="butt">
      <path fill="none" d="M572 90.9923 L572 163.9907" clip-path="url(#clipPath2)"/>
    </g>
    <g text-rendering="geometricPrecision" stroke-miterlimit="1.45" shape-rendering="geometricPrecision" transform="matrix(1,0,0,1,211,4)" stroke-linecap="butt">
      <path d="M572 171.9907 L577 159.9907 L572 162.9907 L567 159.9907 Z" stroke="none" clip-path="url(#clipPath2)"/>
      <path fill="none" d="M695.3613 249.1956 L828.9785 246.6997" clip-path="url(#clipPath2)" stroke="green"/>
      <path fill="green" d="M836.9771 246.5502 L824.8857 241.7752 L827.9786 246.7183 L825.0725 251.7735 Z" clip-path="url(#clipPath2)" stroke="none"/>
      <text x="755.0176" xml:space="preserve" y="222.0345" clip-path="url(#clipPath2)" font-family="sans-serif" stroke="none">Yes</text>
      <path fill="none" d="M938.6647 298.2872 L870.0282 405.2498" clip-path="url(#clipPath2)" stroke="green"/>
      <path fill="green" d="M865.7077 411.9828 L876.3965 404.5836 L870.5682 404.4082 L867.9803 399.183 Z" clip-path="url(#clipPath2)" stroke="none"/>
      <text x="851.0814" xml:space="preserve" y="367.0456" clip-path="url(#clipPath2)" font-family="sans-serif" stroke="none">Yes</text>
      <path fill="none" d="M1007.0649 298.9127 L1072.0204 405.1809" clip-path="url(#clipPath2)" stroke="red"/>
      <path fill="red" d="M1076.1926 412.0068 L1074.2004 399.1604 L1071.4989 404.3277 L1065.6681 404.3757 Z" clip-path="url(#clipPath2)" stroke="none"/>
      <text x="1073.3424" xml:space="preserve" y="367.3235" clip-path="url(#clipPath2)" font-family="sans-serif" stroke="none">No</text>
      <path fill="none" d="M233 465.7645 L233 474.0125 L233 512.4728" clip-path="url(#clipPath2)"/>
      <path d="M233 520.4728 L238 508.4728 L233 511.4728 L228 508.4728 Z" clip-path="url(#clipPath2)" stroke="none"/>
      <text x="251.6523" xml:space="preserve" y="495.7715" clip-path="url(#clipPath2)" font-family="sans-serif" stroke="none">Request fingerprint from server</text>
      <path fill="none" d="M233 606.4673 L233 665.5057" clip-path="url(#clipPath2)"/>
      <path d="M233 673.5057 L238 661.5057 L233 664.5057 L228 661.5057 Z" clip-path="url(#clipPath2)" stroke="none"/>
      <text x="258.3496" xml:space="preserve" y="642.9043" clip-path="url(#clipPath2)" font-family="sans-serif" stroke="none">Decrypt hash value</text>
      <path fill="none" d="M233 817.5463 L233 891.5249" clip-path="url(#clipPath2)" stroke="green"/>
      <path fill="green" d="M233 899.5249 L238 887.5249 L233 890.5249 L228 887.5249 Z" clip-path="url(#clipPath2)" stroke="none"/>
      <text x="192.5176" xml:space="preserve" y="862.6543" clip-path="url(#clipPath2)" font-family="sans-serif" stroke="none">Yes</text>
      <path fill="none" d="M154.0004 937 L-2.9332 937 L-26.3087 936.2526 L-48.1761 934.0104 L-68.5354 930.2733 L-87.3866 925.0414 L-104.7297 918.3147 L-112.8357 914.3908 L-120.5647 910.0931 L-127.9166 905.4218 L-134.8916 900.3768 L-141.4895 894.9581 L-147.7104 889.1656 L-153.5543 882.9995 L-159.0211 876.4597 L-164.1109 869.5461 L-168.8237 862.2588 L-173.1595 854.5978 L-177.1183 846.5632 L-183.9047 829.3727 L-189.183 810.6874 L-192.9533 790.5073 L-195.2154 768.8323 L-195.9695 745.6625 L-195.9695 703.1431 L-195.9695 304.4431 L-195.9695 258.3625 L-195.632 245.6048 L-194.6195 233.2522 L-192.9321 221.3046 L-190.5697 209.7619 L-187.5323 198.6243 L-183.8199 187.8916 L-179.4326 177.564 L-174.3703 167.6414 L-168.633 158.1238 L-162.2208 149.0112 L-155.1336 140.3036 L-147.3714 132.001 L-138.9342 124.1034 L-129.8221 116.6108 L-120.035 109.5232 L-109.5729 102.8406 L-98.4358 96.563 L-86.6238 90.6905 L-74.1368 85.2229 L-60.9748 80.1603 L-47.1379 75.5028 L-32.626 71.2502 L-17.4391 67.4027 L-1.5772 63.9602 L14.9597 60.9226 L32.1715 58.2901 L68.62 54.24 L107.7685 51.81 L149.6168 51 L500.5033 51" clip-path="url(#clipPath2)"/>
      <path d="M508.5033 51 L496.5033 46 L499.5033 51 L496.5033 56 Z" clip-path="url(#clipPath2)" stroke="none"/>
      <path fill="none" d="M449.3029 254.2145 L345.5321 256.5103" clip-path="url(#clipPath2)" stroke="red"/>
      <path fill="red" d="M337.5341 256.6873 L349.6417 261.4207 L346.5319 256.4882 L349.4205 251.4231 Z" clip-path="url(#clipPath2)" stroke="none"/>
      <text x="384.8408" xml:space="preserve" y="229.6071" clip-path="url(#clipPath2)" font-family="sans-serif" stroke="none">No</text>
      <path fill="none" d="M233 331.0168 L233 377.7382" clip-path="url(#clipPath2)" stroke="green"/>
      <path fill="green" d="M233 385.7382 L238 373.7382 L233 376.7382 L228 373.7382 Z" clip-path="url(#clipPath2)" stroke="none"/>
      <text x="192.5176" xml:space="preserve" y="362.5293" clip-path="url(#clipPath2)" font-family="sans-serif" stroke="none">Yes</text>
      <path fill="none" d="M124.9823 259 L47.7782 259" clip-path="url(#clipPath2)" stroke="red"/>
      <path fill="red" d="M39.7782 259 L51.7782 264 L48.7782 259 L51.7782 254 Z" clip-path="url(#clipPath2)" stroke="none"/>
      <text x="74.2158" xml:space="preserve" y="233.1543" clip-path="url(#clipPath2)" font-family="sans-serif" stroke="none">No</text>
      <path fill="none" d="M360.0009 745.5 L480.0233 745.5" clip-path="url(#clipPath2)" stroke="red"/>
      <path fill="red" d="M488.0233 745.5 L476.0233 740.5 L479.0233 745.5 L476.0233 750.5 Z" clip-path="url(#clipPath2)" stroke="none"/>
      <text x="415.8408" xml:space="preserve" y="719.6543" clip-path="url(#clipPath2)" font-family="sans-serif" stroke="none">No</text>
    </g>
  </g>
</svg>
